<mxfile host="app.diagrams.net" agent="Mozilla/5.0 (Windows NT 10.0; Win64; x64) AppleWebKit/537.36 (KHTML, like Gecko) Chrome/137.0.0.0 Safari/537.36" version="27.1.4">
  <diagram name="ページ1" id="3Q4YgSCjKWb4eLk2HaWH">
    <mxGraphModel dx="1270" dy="815" grid="1" gridSize="10" guides="1" tooltips="1" connect="1" arrows="1" fold="1" page="1" pageScale="1" pageWidth="1654" pageHeight="1169" math="0" shadow="0">
      <root>
        <mxCell id="0" />
        <mxCell id="1" parent="0" />
        <mxCell id="2yLRccC5nPOCRXNgj-S9-1" value="身体と感情レイヤーでの許容判定" style="text;html=1;align=center;verticalAlign=middle;whiteSpace=wrap;rounded=0;fillColor=#dae8fc;strokeColor=#6c8ebf;" vertex="1" parent="1">
          <mxGeometry x="40" y="40" width="200" height="40" as="geometry" />
        </mxCell>
        <mxCell id="2yLRccC5nPOCRXNgj-S9-3" value="許容外" style="rounded=0;whiteSpace=wrap;html=1;labelPosition=center;verticalLabelPosition=middle;align=center;verticalAlign=top;" vertex="1" parent="1">
          <mxGeometry x="40" y="160" width="280" height="190" as="geometry" />
        </mxCell>
        <mxCell id="2yLRccC5nPOCRXNgj-S9-5" value="許容" style="ellipse;whiteSpace=wrap;html=1;fillColor=#d5e8d4;strokeColor=#82b366;" vertex="1" parent="1">
          <mxGeometry x="100" y="200" width="170" height="110" as="geometry" />
        </mxCell>
        <mxCell id="2yLRccC5nPOCRXNgj-S9-7" value="許容外" style="rounded=0;whiteSpace=wrap;html=1;labelPosition=center;verticalLabelPosition=middle;align=center;verticalAlign=top;" vertex="1" parent="1">
          <mxGeometry x="400" y="160" width="280" height="190" as="geometry" />
        </mxCell>
        <mxCell id="2yLRccC5nPOCRXNgj-S9-10" value="" style="endArrow=none;dashed=1;html=1;dashPattern=1 3;strokeWidth=2;rounded=0;exitX=0.5;exitY=0;exitDx=0;exitDy=0;entryX=0;entryY=0;entryDx=0;entryDy=0;" edge="1" parent="1" target="2yLRccC5nPOCRXNgj-S9-7">
          <mxGeometry width="50" height="50" relative="1" as="geometry">
            <mxPoint x="180" y="199.9999999999999" as="sourcePoint" />
            <mxPoint x="510" y="370" as="targetPoint" />
          </mxGeometry>
        </mxCell>
        <mxCell id="2yLRccC5nPOCRXNgj-S9-11" value="" style="endArrow=none;dashed=1;html=1;dashPattern=1 3;strokeWidth=2;rounded=0;exitX=0.5;exitY=1;exitDx=0;exitDy=0;entryX=0;entryY=1;entryDx=0;entryDy=0;" edge="1" parent="1" target="2yLRccC5nPOCRXNgj-S9-7">
          <mxGeometry width="50" height="50" relative="1" as="geometry">
            <mxPoint x="180" y="309.9999999999999" as="sourcePoint" />
            <mxPoint x="540" y="410" as="targetPoint" />
          </mxGeometry>
        </mxCell>
        <mxCell id="2yLRccC5nPOCRXNgj-S9-12" value="①感情レイヤー&lt;div&gt;での許容判定&lt;/div&gt;" style="text;html=1;align=center;verticalAlign=middle;whiteSpace=wrap;rounded=0;" vertex="1" parent="1">
          <mxGeometry x="100" y="120" width="160" height="30" as="geometry" />
        </mxCell>
        <mxCell id="2yLRccC5nPOCRXNgj-S9-13" value="➁身体レイヤー&lt;div&gt;での許容判定&lt;/div&gt;" style="text;html=1;align=center;verticalAlign=middle;whiteSpace=wrap;rounded=0;" vertex="1" parent="1">
          <mxGeometry x="460" y="120" width="160" height="30" as="geometry" />
        </mxCell>
        <mxCell id="2yLRccC5nPOCRXNgj-S9-14" value="許容外" style="rounded=0;whiteSpace=wrap;html=1;labelPosition=center;verticalLabelPosition=middle;align=center;verticalAlign=top;" vertex="1" parent="1">
          <mxGeometry x="400" y="440" width="280" height="190" as="geometry" />
        </mxCell>
        <mxCell id="2yLRccC5nPOCRXNgj-S9-17" value="③個人の志向性レイヤー&lt;div&gt;での許容判定&lt;/div&gt;" style="text;html=1;align=center;verticalAlign=middle;whiteSpace=wrap;rounded=0;" vertex="1" parent="1">
          <mxGeometry x="465" y="400" width="160" height="30" as="geometry" />
        </mxCell>
        <mxCell id="2yLRccC5nPOCRXNgj-S9-18" value="" style="endArrow=none;dashed=1;html=1;dashPattern=1 3;strokeWidth=2;rounded=0;exitX=0;exitY=0.5;exitDx=0;exitDy=0;entryX=0;entryY=0;entryDx=0;entryDy=0;" edge="1" parent="1" source="2yLRccC5nPOCRXNgj-S9-20" target="2yLRccC5nPOCRXNgj-S9-14">
          <mxGeometry width="50" height="50" relative="1" as="geometry">
            <mxPoint x="547.02" y="202.97000000000003" as="sourcePoint" />
            <mxPoint x="750" y="420" as="targetPoint" />
          </mxGeometry>
        </mxCell>
        <mxCell id="2yLRccC5nPOCRXNgj-S9-19" value="" style="endArrow=none;dashed=1;html=1;dashPattern=1 3;strokeWidth=2;rounded=0;entryX=1;entryY=0;entryDx=0;entryDy=0;exitX=1;exitY=0.5;exitDx=0;exitDy=0;" edge="1" parent="1" source="2yLRccC5nPOCRXNgj-S9-20" target="2yLRccC5nPOCRXNgj-S9-14">
          <mxGeometry width="50" height="50" relative="1" as="geometry">
            <mxPoint x="540" y="310" as="sourcePoint" />
            <mxPoint x="750" y="350" as="targetPoint" />
          </mxGeometry>
        </mxCell>
        <mxCell id="2yLRccC5nPOCRXNgj-S9-20" value="許容" style="ellipse;whiteSpace=wrap;html=1;fillColor=#d5e8d4;strokeColor=#82b366;" vertex="1" parent="1">
          <mxGeometry x="460" y="200" width="170" height="110" as="geometry" />
        </mxCell>
        <mxCell id="2yLRccC5nPOCRXNgj-S9-21" value="許容" style="ellipse;whiteSpace=wrap;html=1;fillColor=#d5e8d4;strokeColor=#82b366;" vertex="1" parent="1">
          <mxGeometry x="450" y="480" width="170" height="110" as="geometry" />
        </mxCell>
        <mxCell id="2yLRccC5nPOCRXNgj-S9-22" value="許容外" style="rounded=0;whiteSpace=wrap;html=1;labelPosition=center;verticalLabelPosition=middle;align=center;verticalAlign=top;" vertex="1" parent="1">
          <mxGeometry x="760" y="440" width="280" height="190" as="geometry" />
        </mxCell>
        <mxCell id="2yLRccC5nPOCRXNgj-S9-24" value="許容" style="ellipse;whiteSpace=wrap;html=1;fillColor=#d5e8d4;strokeColor=#82b366;" vertex="1" parent="1">
          <mxGeometry x="820" y="480" width="170" height="110" as="geometry" />
        </mxCell>
        <mxCell id="2yLRccC5nPOCRXNgj-S9-25" value="④社会の志向性レイヤー&lt;div&gt;での許容判定&lt;/div&gt;" style="text;html=1;align=center;verticalAlign=middle;whiteSpace=wrap;rounded=0;" vertex="1" parent="1">
          <mxGeometry x="820" y="400" width="160" height="30" as="geometry" />
        </mxCell>
        <mxCell id="2yLRccC5nPOCRXNgj-S9-26" value="" style="endArrow=none;dashed=1;html=1;dashPattern=1 3;strokeWidth=2;rounded=0;exitX=0;exitY=0;exitDx=0;exitDy=0;entryX=0.5;entryY=0;entryDx=0;entryDy=0;" edge="1" parent="1" source="2yLRccC5nPOCRXNgj-S9-22" target="2yLRccC5nPOCRXNgj-S9-21">
          <mxGeometry width="50" height="50" relative="1" as="geometry">
            <mxPoint x="830" y="280" as="sourcePoint" />
            <mxPoint x="770" y="465" as="targetPoint" />
          </mxGeometry>
        </mxCell>
        <mxCell id="2yLRccC5nPOCRXNgj-S9-27" value="" style="endArrow=none;dashed=1;html=1;dashPattern=1 3;strokeWidth=2;rounded=0;exitX=0;exitY=1;exitDx=0;exitDy=0;entryX=0.547;entryY=0.982;entryDx=0;entryDy=0;entryPerimeter=0;" edge="1" parent="1" source="2yLRccC5nPOCRXNgj-S9-22" target="2yLRccC5nPOCRXNgj-S9-21">
          <mxGeometry width="50" height="50" relative="1" as="geometry">
            <mxPoint x="845" y="620" as="sourcePoint" />
            <mxPoint x="620" y="660" as="targetPoint" />
          </mxGeometry>
        </mxCell>
      </root>
    </mxGraphModel>
  </diagram>
</mxfile>
